<?xml version="1.0" encoding="UTF-8" standalone="no"?>
<svg width="80px" height="24px" viewBox="0 0 80 24" version="1.1" xmlns="http://www.w3.org/2000/svg" xmlns:xlink="http://www.w3.org/1999/xlink">
    <!-- Generator: Sketch Beta 3.8 (29681) - http://www.bohemiancoding.com/sketch -->
    <title>logo</title>
    <desc>Created with Sketch Beta.</desc>
    <defs></defs>
    <g id="Page-1" stroke="none" stroke-width="1" fill="none" fill-rule="evenodd">
        <g id="Group" transform="translate(0.000000, 1.000000)" fill="#FFFFFF">
            <path d="M21.4285714,8.59245283 C21.4871795,8.30314465 21.5501832,7.86918239 21.6175824,7.29056604 C22.3175298,7.1049454 23.0279087,6.96004217 23.7450549,6.85660377 C24.3281768,6.78281181 24.9154056,6.74512806 25.5032967,6.74377358 C26.0818911,6.73966579 26.6593515,6.79493116 27.2263736,6.90867925 C27.6985637,6.99719568 28.147362,7.18033642 28.5450549,7.44679245 C28.866313,7.65565737 29.1124724,7.9594378 29.2483516,8.31471698 C29.3666426,8.6479603 29.4261142,8.99877769 29.4241758,9.35188679 C29.4241758,9.81477987 29.3904762,10.5901258 29.3230769,11.6779245 C29.2556777,12.7657233 29.2029304,13.7783019 29.1648352,14.7156604 C29.1296703,15.6414465 29.1120879,16.4659748 29.1120879,17.1892453 L28.2065934,17.1892453 L27.2703297,17.1892453 L27.4769231,14.4422642 L27.6263736,11.1962264 C27.389011,11.3784906 27.2087912,11.5043396 27.0945055,11.5781132 C26.9669656,11.657888 26.8332121,11.7275408 26.6945055,11.7864151 C26.5336043,11.8552859 26.3692938,11.9161176 26.2021978,11.9686792 C26.0234432,12.0265409 25.6747253,12.1263522 25.156044,12.2681132 C24.6373626,12.4098742 24.2695971,12.5169182 24.0527473,12.5892453 C23.6707234,12.6997857 23.2999052,12.8450617 22.9450549,13.0232075 C22.6976501,13.1537644 22.4686018,13.3157036 22.2637363,13.5049057 C22.1001089,13.6522679 21.9685099,13.8309119 21.8769231,14.03 C21.788809,14.2435351 21.7440061,14.4720689 21.7450549,14.7026415 C21.7455122,15.0367103 21.8601173,15.3608567 22.0703297,15.6226415 C22.2775702,15.8863911 22.5611934,16.0816421 22.8835165,16.1824528 C23.2656633,16.2942719 23.6630491,16.3469723 24.0615385,16.3386792 C24.3556076,16.3373878 24.6492758,16.3170929 24.9406593,16.2779245 C25.363977,16.2088175 25.7802577,16.1028052 26.1846154,15.9611321 C26.0566297,16.3527837 25.9509696,16.7512067 25.8681319,17.1545283 C25.46883,17.236784 25.0653086,17.2976279 24.6593407,17.3367925 C24.3457875,17.3599371 24.0527473,17.3715094 23.7802198,17.3715094 C23.0423108,17.4017737 22.3053282,17.2927815 21.6087912,17.0503774 C21.1192972,16.8581758 20.7102337,16.5078633 20.4483516,16.0566038 C20.1918209,15.6220657 20.0582285,15.1274748 20.0615385,14.6245283 C20.0676607,14.3457513 20.1211516,14.0699678 20.2197802,13.8086792 C20.3089186,13.5602914 20.4348266,13.3263064 20.5934066,13.1143396 C20.7831244,12.874146 21.008354,12.6634881 21.2615385,12.489434 C21.5428117,12.2855269 21.8465807,12.1137394 22.167033,11.9773585 C22.4835165,11.8442767 22.8527473,11.711195 23.2747253,11.5781132 C23.6967033,11.4450314 24.3721612,11.2685535 25.3010989,11.0486792 C25.5505188,10.9945304 25.7969904,10.9279036 26.0395604,10.8490566 C26.2505495,10.7796226 26.43663,10.7101887 26.5978022,10.6407547 C26.7545027,10.5810195 26.9023492,10.5007395 27.0373626,10.4020755 C27.1653427,10.3067376 27.2792565,10.1942747 27.3758242,10.0679245 C27.4710385,9.94869359 27.5466862,9.81543341 27.6,9.67301887 C27.6462378,9.54334546 27.6700138,9.40690729 27.6703297,9.26943396 C27.6763491,8.95911412 27.5596735,8.65868708 27.3450549,8.43188679 C27.1140519,8.19140934 26.8181456,8.02124669 26.4923077,7.94150943 C26.0852437,7.84438141 25.6669949,7.80060875 25.2483516,7.81132075 C24.7935742,7.81173082 24.3394974,7.84654975 23.8901099,7.9154717 C23.4849731,7.97142981 23.0840792,8.05406692 22.6901099,8.16283019 C22.3501832,8.25830189 21.9296703,8.40150943 21.4285714,8.59245283 L21.4285714,8.59245283 Z" id="Shape"></path>
            <path d="M30.4043956,17.1588679 L33.1340659,13.5526415 L34.5054945,11.7169811 L31.4505495,6.99113208 L32.5494505,6.99113208 L33.5428571,6.99113208 C33.9150183,7.70283019 34.647619,8.9309434 35.7406593,10.6754717 C37.0564103,8.8354717 37.9120879,7.60735849 38.3076923,6.99113208 L39.2967033,6.99113208 L40.3076923,6.99113208 L38.5802198,9.24773585 C38.4161172,9.45603774 37.8153846,10.2588679 36.778022,11.6562264 C37.5575092,12.9060377 38.2065934,13.9186164 38.7252747,14.6939623 L40.3384615,17.1545283 L39.3186813,17.1545283 L38.2505495,17.1545283 C37.9018315,16.4862264 37.4622711,15.7311321 36.9318681,14.8892453 L35.5736264,12.719434 L34.3252747,14.455283 C33.6161172,15.444717 32.996337,16.3444654 32.4659341,17.1545283 L31.4813187,17.1545283 C31.229304,17.1545283 30.8703297,17.1559748 30.4043956,17.1588679 L30.4043956,17.1588679 Z" id="Shape"></path>
            <path d="M44.589011,17.1588679 L44.1098901,15.7050943 L40.9450549,6.99113208 L41.8593407,6.99113208 L42.6989011,6.99113208 L43.578022,9.69037736 L45.6659341,15.6226415 L48.8659341,7.01283019 L49.8153846,7.01283019 L50.7428571,7.01283019 L53.1032967,15.6226415 L55.9340659,8.95698113 L56.7032967,6.99113208 L57.556044,6.99113208 L58.4351648,6.99113208 L55.0197802,14.559434 L53.9032967,17.1632075 L52.9582418,17.1632075 L51.9252747,17.1632075 L50.0395604,10.1156604 C49.9164835,9.65132075 49.7846154,9.19566038 49.6483516,8.74 L49.4417582,9.26075472 C49.3802198,9.40830189 49.2410256,9.78006289 49.0241758,10.3760377 L46.8747253,16.1564151 C46.7721612,16.4312579 46.6534799,16.7654088 46.5186813,17.1588679 L45.5824176,17.1588679 C45.3010989,17.1588679 44.9714286,17.1458491 44.589011,17.1588679 L44.589011,17.1588679 Z" id="Shape"></path>
            <path d="M59.9692308,8.59245283 C60.0278388,8.30314465 60.0908425,7.86918239 60.1582418,7.29056604 C60.8581798,7.10490653 61.568561,6.96000282 62.2857143,6.85660377 C62.8688307,6.78275522 63.456063,6.74507124 64.043956,6.74377358 C64.6210823,6.73996621 65.1970539,6.79523008 65.7626374,6.90867925 C66.234579,6.99801682 66.6832144,7.18109109 67.0813187,7.44679245 C67.4021685,7.65609912 67.64821,7.95973403 67.7846154,8.31471698 C67.9033322,8.64785215 67.9628163,8.99874304 67.9604396,9.35188679 C67.9604396,9.81477987 67.9252747,10.5901258 67.8549451,11.6779245 C67.7846154,12.7657233 67.7318681,13.7783019 67.6967033,14.7156604 C67.6586081,15.6414465 67.6395604,16.4659748 67.6395604,17.1892453 L66.7340659,17.1892453 L65.7978022,17.1892453 L66.0043956,14.4422642 L66.1538462,11.1962264 C65.9164835,11.3784906 65.7391941,11.5057862 65.621978,11.5781132 C65.4944755,11.6579517 65.3607167,11.7276072 65.221978,11.7864151 C65.0725275,11.8515094 64.9098901,11.9122642 64.7296703,11.9686792 C64.5494505,12.0250943 64.2021978,12.1249057 63.6835165,12.2681132 C63.1648352,12.4113208 62.8043956,12.5154717 62.5802198,12.5892453 C62.1981629,12.699691 61.827336,12.8449705 61.4725275,13.0232075 C61.2252812,13.154016 60.9962645,13.3159328 60.7912088,13.5049057 C60.6274896,13.6521868 60.495876,13.8308507 60.4043956,14.03 C60.3167164,14.2436625 60.2719302,14.4721109 60.2725275,14.7026415 C60.266592,15.0456792 60.3815735,15.3800946 60.5978022,15.6486792 C60.8048484,15.9126307 61.0885414,16.1079296 61.410989,16.2084906 C61.7930911,16.3205159 62.1905096,16.3732206 62.589011,16.364717 C62.8830797,16.3634132 63.176747,16.3431183 63.4681319,16.3039623 C63.8914163,16.2346998 64.3076832,16.128691 64.7120879,15.9871698 C64.5817259,16.3784735 64.4745844,16.7769484 64.3912088,17.180566 C63.9919316,17.2629564 63.5884027,17.3238014 63.1824176,17.3628302 C62.8703297,17.3888679 62.5758242,17.3975472 62.3032967,17.3975472 C61.5653878,17.4278114 60.8284051,17.3188192 60.1318681,17.0764151 C59.6448019,16.8742598 59.2418056,16.5146521 58.989011,16.0566038 C58.7322791,15.6221483 58.5986719,15.127502 58.6021978,14.6245283 C58.5991961,14.3411557 58.645281,14.0593617 58.7384615,13.7913208 C58.8258783,13.5430339 58.9503249,13.3090116 59.1076923,13.0969811 C59.3003959,12.8641615 59.5270424,12.6608763 59.7802198,12.4937736 C60.0614517,12.2898038 60.3652281,12.1180121 60.6857143,11.9816981 C61.0021978,11.8486164 61.3714286,11.7155346 61.7934066,11.5824528 C62.2153846,11.4493711 62.8908425,11.2728931 63.8197802,11.0530189 C64.0781855,10.9983761 64.3334863,10.9302938 64.5846154,10.8490566 C64.7956044,10.7796226 64.9846154,10.7101887 65.1472527,10.6407547 C65.3038417,10.5807833 65.4516574,10.5005201 65.5868132,10.4020755 C65.7134286,10.306641 65.8258768,10.1941642 65.9208791,10.0679245 C66.0160934,9.94869359 66.0917411,9.81543341 66.1450549,9.67301887 C66.1912927,9.54334546 66.2150688,9.40690729 66.2153846,9.26943396 C66.2214041,8.95911412 66.1047285,8.65868708 65.8901099,8.43188679 C65.6603056,8.19211715 65.3660174,8.02200811 65.0417582,7.94150943 C64.6379459,7.84216606 64.222691,7.7954795 63.8065934,7.80264151 C63.3518153,7.80303455 62.8977371,7.83785358 62.4483516,7.90679245 C62.043158,7.96242763 61.6422422,8.04506925 61.2483516,8.15415094 C60.8967033,8.25540881 60.4703297,8.40150943 59.9692308,8.59245283 L59.9692308,8.59245283 Z" id="Shape"></path>
            <path d="M68.6593407,21.8066038 C68.6153846,21.2279874 68.5626374,20.7462893 68.5010989,20.3615094 C68.8027653,20.5082662 69.1216741,20.6175881 69.4505495,20.6869811 C69.6964874,20.7373919 69.9466598,20.7649962 70.1978022,20.769434 C70.4620365,20.769434 70.7241053,20.7223919 70.9714286,20.630566 C71.1992398,20.5516883 71.4074937,20.4259607 71.5824176,20.2616981 C71.7743675,20.0682312 71.9439094,19.8542725 72.0879121,19.6237736 C72.2593407,19.354717 72.443956,19.0379245 72.6373626,18.6733962 C72.8442173,18.2756406 73.0291033,17.867118 73.1912088,17.4496226 L71.0197802,11.3741509 L69.432967,7.0345283 L70.443956,7.0345283 L71.389011,7.0345283 C71.4974359,7.50320755 71.5882784,7.86050314 71.6615385,8.10641509 C71.7347985,8.35232704 71.8945055,8.85716981 72.1406593,9.6209434 L73.6527473,14.2209434 C73.8197802,14.7445912 73.9868132,15.3058491 74.1538462,15.904717 L75.3054945,13.1403774 L77.432967,8.23660377 C77.4945055,8.0890566 77.556044,7.93716981 77.6131868,7.7809434 L77.8813187,7.0345283 L78.7868132,7.0345283 L79.7318681,7.0345283 C79.4652015,7.63050314 78.8234432,9.01773585 77.8065934,11.1962264 L74.0307692,19.4675472 C73.8294008,19.9098848 73.5865861,20.3326678 73.3054945,20.7303774 C73.1378646,20.9474934 72.9462008,21.1454497 72.7340659,21.320566 C72.5669034,21.4628542 72.3823101,21.5838631 72.1846154,21.6807547 C71.9236568,21.804733 71.6494069,21.8993524 71.367033,21.9628302 C71.0446555,22.0293956 70.7161659,22.0628443 70.3868132,22.0626415 C69.8027639,22.0449897 69.2228934,21.9590441 68.6593407,21.8066038 L68.6593407,21.8066038 Z" id="Shape"></path>
            <path d="M10.7208791,4.63471698 C8.54777265,4.65041177 6.45508267,5.44812763 4.83516484,6.87830189 L4.83516484,6.87830189 L4.72967033,6.97811321 L4.72967033,6.97811321 L4.63736264,6.89566038 C-1.3873509,0.433962264 7.41098901,4.50886792 10.7076923,4.5045283 L10.7076923,4.5045283 C12.5582418,4.5045283 14.6637363,5.06867925 17.0197802,6.78283019 C17.4285714,7.11264151 18.3736264,7.85037736 17.3098901,7.06924528 C14.8175824,5.23792453 12.5802198,4.63471698 10.7164835,4.63471698 L10.7164835,4.63471698 L10.7208791,4.63471698 Z" id="Shape"></path>
            <path d="M4.04395604,5.92792453 C6.55824176,2.91188679 9.91208791,1.9745283 13.1032967,1.9745283 L13.1032967,1.9745283 C16.0982133,2.0328694 19.0471418,2.71302725 21.7582418,3.97075472 C21.9656285,4.03898842 22.1623876,4.13538474 22.3428571,4.25716981 L21.789011,4.01849057 C21.5648352,3.92301887 21.3142857,3.82320755 21.0461538,3.7190566 C20.778022,3.61490566 20.4395604,3.49773585 20.1054945,3.38490566 L20.1054945,3.38490566 C17.857333,2.58616189 15.4921464,2.15520847 13.1032967,2.1090566 L13.1032967,2.1090566 C9.95164835,2.1090566 6.62417582,3.0854717 4.14505495,6.01471698 C4.10549451,6.0754717 4.1010989,6.0754717 4.06153846,6.13188679 L3.98241758,6.01037736 L4.04395604,5.92792453 Z" id="Shape"></path>
            <path d="M4.78681319,18.3175472 C3.18241758,16.9549057 1.56923077,14.984717 1.56923077,12.5849057 L1.56923077,12.5849057 C1.57036974,12.2189662 1.60865632,11.8540607 1.68351648,11.4956604 L1.68351648,11.4088679 L1.78901099,11.5477358 L1.78901099,11.6301887 C1.73133898,11.9452578 1.70192102,12.2647342 1.7010989,12.5849057 L1.7010989,12.5849057 C1.7010989,16.1130189 5.27032967,18.7211321 7.06373626,19.7973585 L7.06373626,19.7973585 C7.66153846,20.1575472 8.54945055,20.7867925 8.54945055,20.7867925 C7.21390849,20.0981782 5.9531461,19.2766144 4.78681319,18.3349057 L4.78681319,18.3349057 L4.78681319,18.3175472 Z" id="Shape"></path>
            <path d="M1.54285714,12.1509434 C1.54285714,11.8515094 1.54285714,11.5650943 1.58681319,11.2830189 L1.58681319,11.2483019 L1.71428571,11.3828302 L1.71428571,11.4783019 C1.71428571,11.6996226 1.68791209,11.9122642 1.68791209,12.1683019 L1.68791209,12.1683019 C1.68791209,14.8849057 2.97582418,18.3001887 7.21758242,22.2188679 L7.85934066,22.8524528 C2.82197802,18.7081132 1.54285714,14.9283019 1.54285714,12.1509434 L1.54285714,12.1509434 L1.54285714,12.1509434 Z" id="Shape"></path>
            <path d="M4.78681319,18.3175472 C3.18241758,16.9549057 1.56923077,14.984717 1.56923077,12.5849057 L1.56923077,12.5849057 C1.56923077,11.2309434 2.10989011,9.69471698 3.40659341,8.10641509 L3.45934066,8.04132075 L3.45934066,8.04132075 L3.54725275,8.11943396 C2.21978022,9.72509434 1.7010989,11.2179245 1.7010989,12.5849057 L1.7010989,12.5849057 C1.7010989,16.1130189 5.27032967,18.7211321 7.06373626,19.7973585 L7.06373626,19.7973585 C7.66153846,20.1575472 8.54945055,20.7867925 8.54945055,20.7867925 C7.21390849,20.0981782 5.9531461,19.2766144 4.78681319,18.3349057 L4.78681319,18.3349057 L4.78681319,18.3175472 Z" id="Shape"></path>
            <path d="M4.6021978,6.94339623 L4.7032967,6.85226415 C7.56043956,9.45603774 10.2021978,9.9290566 11.8021978,9.9290566 L11.8021978,9.9290566 C12.2931976,9.93427852 12.7830844,9.88183481 13.2615385,9.77283019 L13.2615385,9.77283019 L13.367033,9.74679245 L13.367033,9.74679245 L13.3054945,9.84226415 C12.8230686,10.0091799 12.3129616,10.0842797 11.8021978,10.0635849 L11.8021978,10.0635849 C10.1758242,10.0462264 7.47252747,9.54716981 4.6021978,6.94339623 L4.6021978,6.94339623 L4.6021978,6.94339623 Z" id="Shape"></path>
            <path d="M10.7208791,4.63471698 C8.54777265,4.65041177 6.45508267,5.44812763 4.83516484,6.87830189 L4.83516484,6.87830189 L4.72967033,6.97811321 L4.72967033,6.97811321 L4.63736264,6.89566038 C-2.03639958,0.433962264 7.41098901,4.50886792 10.7076923,4.5045283 L10.7076923,4.5045283 C12.5582418,4.5045283 14.6637363,5.06867925 17.0197802,6.78283019 C17.4285714,7.11264151 18.3736264,7.85037736 17.3098901,7.06924528 C14.8175824,5.23792453 12.5802198,4.63471698 10.7164835,4.63471698 L10.7164835,4.63471698 L10.7208791,4.63471698 Z" id="Shape"></path>
            <path d="M2.70769231,2.50396226 C2.68589147,2.26183879 2.71584197,2.01789409 2.7956044,1.78792453 C2.80690516,1.76674129 2.82356133,1.74880234 2.84395604,1.73584906 C2.87717979,1.7112256 2.91247286,1.68944836 2.94945055,1.67075472 C2.94945055,1.69679245 2.91428571,1.80962264 2.88791209,1.93981132 L2.88791209,1.93981132 C2.85485005,2.12899032 2.83867075,2.32066924 2.83956044,2.51264151 L2.83956044,2.51264151 C2.89667675,3.79488232 3.34057209,5.03102687 4.11428571,6.06245283 L4.11428571,6.06245283 L4.03076923,6.16660377 C3.23684368,5.09984426 2.77825385,3.82610956 2.71208791,2.50396226 L2.71208791,2.50396226 L2.70769231,2.50396226 Z" id="Shape"></path>
            <path d="M11.4285714,2.14811321 C10.2053566,0.998981767 8.56679197,0.381600158 6.87912088,0.433962264 C5.44120141,0.434510037 4.04003146,0.882458262 2.87472527,1.71415094 C2.51428571,2.98566038 3.16043956,4.79962264 4.02197802,6.05377358 C4.3956044,5.64150943 4.87032967,5.16849057 5.27472527,4.77358491 C6.94017887,3.20041297 9.12609352,2.27552361 11.4285714,2.16981132 L11.4285714,2.14811321 Z" id="Shape"></path>
            <path d="M2.9010989,7.56396226 C1.92386051,6.68433887 1.18752891,5.57524922 0.76043956,4.33962264 C0.284944631,5.23080932 0.0246819895,6.21849951 -2.05360961e-14,7.2254717 C-0.00198807997,8.85073176 0.589468779,10.4222427 1.66593407,11.6518868 C1.71342175,10.2074477 2.13732086,8.79949278 2.8967033,7.56396226 L2.8967033,7.56396226 L2.9010989,7.56396226 Z" id="Shape"></path>
            <path d="M1.71868132,11.7169811 C3.00434227,13.2177744 4.8799157,14.1025392 6.87032967,14.1471698 C9.69881003,14.1165825 12.2367918,12.4250924 13.3230769,9.84660377 C10.1626374,10.9618868 7.83736264,10.0896226 5.53846154,9.21735849 C4.8125947,8.93445849 4.13164917,8.55009364 3.51648352,8.07603774 C2.59439028,9.10661685 1.97302017,10.3650275 1.71868132,11.7169811 L1.71868132,11.7169811 L1.71868132,11.7169811 Z" id="Shape"></path>
            <path d="M13.2615385,9.82490566 C10.6945055,10.2935849 8.08791209,9.59056604 5.3010989,7.47283019 C5.08130771,7.31536448 4.87677017,7.1381287 4.69010989,6.94339623 C5.27171022,6.40933879 5.9237684,5.95535378 6.62857143,5.59377358 C9.79340659,3.96207547 13.2923077,4.67811321 13.4373626,5.09471698 C13.6609218,5.79793071 13.7866147,6.52788441 13.810989,7.2645283 C13.8134455,8.13632064 13.6540354,9.00117504 13.3406593,9.81622642" id="Shape"></path>
            <path d="M4.04395604,5.92792453 C6.55824176,2.91188679 9.91208791,1.9745283 13.1032967,1.9745283 L13.1032967,1.9745283 C16.0982133,2.0328694 19.0471418,2.71302725 21.7582418,3.97075472 C21.9656285,4.03898842 22.1623876,4.13538474 22.3428571,4.25716981 L21.789011,4.01849057 C21.5648352,3.92301887 21.3142857,3.82320755 21.0461538,3.7190566 C20.778022,3.61490566 20.4395604,3.49773585 20.1054945,3.38490566 L20.1054945,3.38490566 C17.857333,2.58616189 15.4921464,2.15520847 13.1032967,2.1090566 L13.1032967,2.1090566 C9.95164835,2.1090566 6.62417582,3.0854717 4.14505495,6.01471698 C4.10549451,6.0754717 4.1010989,6.0754717 4.06153846,6.13188679 L3.98241758,6.01037736 L4.04395604,5.92792453 Z" id="Shape"></path>
            <path d="M0.76043956,4.33962264 L0.791208791,4.30924528 C-1.16850973e-13,0.433962264 0.879120879,4.45245283 0.953846154,4.65207547 L0.953846154,4.65207547 C1.04175824,4.85169811 1.16923077,5.12943396 1.34945055,5.45490566 L1.34945055,5.45490566 C1.76694046,6.22052019 2.30058285,6.91859113 2.93186813,7.52490566 C2.96442693,7.55803612 2.99523691,7.59279909 3.02417582,7.6290566 L2.93186813,7.72886792 C1.96124906,6.8168391 1.20243124,5.70791406 0.707692308,4.47849057 L0.76043956,4.33962264 Z" id="Shape"></path>
            <path d="M3.41978022,8.10207547 L3.49010989,7.98490566 C-2.22044605e-14,0.433962264 3.69230769,8.14113208 4.03956044,8.35811321 L4.03956044,8.35811321 C4.51360702,8.65341148 5.00535159,8.92006416 5.51208791,9.15660377 L5.51208791,9.15660377 C7.01898846,9.8861835 8.66924897,10.2816452 10.3472527,10.315283 L10.3472527,10.315283 C11.3719431,10.321261 12.3892039,10.1433387 13.3494505,9.79018868 L13.3494505,9.8509434 L13.3054945,9.87698113 C12.37171,10.2482944 11.37586,10.4440448 10.3692308,10.4541509 L10.3692308,10.4541509 C6.56703297,10.4541509 3.45054945,8.11509434 3.44615385,8.11075472 L3.44615385,8.11075472 L3.41978022,8.10207547 Z" id="Shape"></path>
            <path d="M1.54285714,12.1509434 C1.5107052,10.5305936 1.96992529,8.93774831 2.86153846,7.57698113 L2.86153846,7.57698113 L2.97142857,7.65943396 C16.4659341,0.433962264 2.89230769,7.76358491 2.76923077,7.96754717 L2.76923077,7.96754717 C2.60191787,8.25512527 2.45504412,8.55383183 2.32967033,8.86150943 L2.32967033,8.86150943 C1.89599853,9.90513437 1.67493563,11.0229154 1.67912088,12.1509434 L1.67912088,12.1509434 C1.67912088,14.8675472 2.96703297,18.2828302 7.20879121,22.2015094 L7.85054945,22.8350943 C2.82197802,18.7081132 1.54285714,14.9283019 1.54285714,12.1509434 L1.54285714,12.1509434 L1.54285714,12.1509434 Z" id="Shape"></path>
        </g>
    </g>
</svg>